<svg xmlns="http://www.w3.org/2000/svg" version="1.1" xmlns:xlink="http://www.w3.org/1999/xlink"
    width="512" height="512" x="0" y="0" viewBox="0 0 48 48"
    style="enable-background:new 0 0 512 512" xml:space="preserve" fill-rule="evenodd" class=""><g><path d="M28.899 41c-.463 2.281-2.482 4-4.899 4s-4.436-1.719-4.9-4zM24 3c-7.18 0-13 5.82-13 13v8.156c0 2.961-.877 5.856-2.519 8.32l-3.313 4.969A1 1 0 0 0 6 39h36a1 1 0 0 0 .832-1.555l-3.313-4.969A15.004 15.004 0 0 1 37 24.156V16A13 13 0 0 0 24 3z" fill="#ffffff" opacity="1" data-original="#000000" class=""></path></g></svg>